<svg xmlns="http://www.w3.org/2000/svg" width="960" height="300">
  <text x="20" y="24">Architecture Overview</text>
  <rect x="20" y="40" width="280" height="200" fill="#eef" stroke="#99f"/>
  <text x="40" y="70">Manager API</text>
  <rect x="40" y="80" width="240" height="140" fill="#fff" stroke="#ccc"/>
  <text x="50" y="110">- REST + JWT + RBAC</text>
  <text x="50" y="130">- Installs Agent (2 replicas + HPA)</text>
  <text x="50" y="150">- Computes conditions</text>

  <rect x="360" y="40" width="560" height="200" fill="#efe" stroke="#9f9"/>
  <text x="380" y="70">Kubernetes Cluster</text>
  <rect x="380" y="80" width="220" height="140" fill="#fff" stroke="#ccc"/>
  <text x="390" y="105">Agent Deployment</text>
  <text x="390" y="125">- Leader Election</text>
  <text x="390" y="145">- Redis buffer → /sync</text>
  <rect x="620" y="80" width="280" height="140" fill="#fff" stroke="#ccc"/>
  <text x="630" y="105">Add-ons</text>
  <text x="630" y="125">- Capsule + capsule-proxy</text>
  <text x="630" y="145">- KubeVela</text>

  <defs><marker id="arr" markerWidth="10" markerHeight="7" refX="10" refY="3.5" orient="auto"><polygon points="0 0, 10 3.5, 0 7"/></marker></defs>
  <line x1="300" y1="120" x2="360" y2="120" stroke="#333" marker-end="url(#arr)"/>
  <text x="310" y="115">install</text>
  <line x1="380" y1="190" x2="260" y2="190" stroke="#333" marker-end="url(#arr)"/>
  <text x="270" y="185">/sync + status</text>
</svg>
